<svg xmlns="http://www.w3.org/2000/svg" width="22.406" height="35.5" viewBox="0 0 22.406 35.5">
  <g id="Raggruppa_21282" data-name="Raggruppa 21282" transform="translate(-1425 -973.5)">
    <path id="Tracciato_60348" data-name="Tracciato 60348" d="M9.364,0h3.468a1.038,1.038,0,0,1,1.04,1.04V8.323h3.8A.865.865,0,0,1,18.285,9.8l-6.594,6.6a.84.84,0,0,1-1.183,0l-6.6-6.6a.865.865,0,0,1,.611-1.478H8.323V1.04A1.038,1.038,0,0,1,9.364,0ZM22.2,16.3v4.855a1.038,1.038,0,0,1-1.04,1.04H1.04A1.038,1.038,0,0,1,0,21.155V16.3a1.038,1.038,0,0,1,1.04-1.04H7.4l2.124,2.124a2.221,2.221,0,0,0,3.147,0L14.8,15.259h6.359A1.038,1.038,0,0,1,22.2,16.3ZM16.82,20.115a.867.867,0,1,0-.867.867A.87.87,0,0,0,16.82,20.115Zm2.774,0a.867.867,0,1,0-.867.867A.87.87,0,0,0,19.594,20.115Z" transform="translate(1425 973.5)" fill="#016cb4"/>
    <path id="Tracciato_64925" data-name="Tracciato 64925" d="M2.895-4.535h.6a1.99,1.99,0,0,0,1.254-.331,1.159,1.159,0,0,0,.416-.964,1.188,1.188,0,0,0-.349-.943,1.634,1.634,0,0,0-1.093-.3H2.895ZM7-5.895a2.618,2.618,0,0,1-.864,2.115,3.7,3.7,0,0,1-2.458.732H2.895V0H1.078V-8.566H3.814a3.64,3.64,0,0,1,2.37.671A2.446,2.446,0,0,1,7-5.895Zm8.725,1.529a4.218,4.218,0,0,1-1.2,3.24A4.91,4.91,0,0,1,11.039,0H8.613V-8.566H11.3a4.529,4.529,0,0,1,3.258,1.107A4.074,4.074,0,0,1,15.721-4.365Zm-1.887.047q0-2.76-2.437-2.76H10.43V-1.5h.779Q13.834-1.5,13.834-4.318ZM19.283,0H17.5V-8.566h4.91v1.488H19.283v2.209h2.906v1.482H19.283Z" transform="translate(1425 1009)" fill="#016cb4"/>
  </g>
</svg>
