<svg id="Componente_27_5" data-name="Componente 27 – 5" xmlns="http://www.w3.org/2000/svg" width="19.917" height="19.921" viewBox="0 0 19.917 19.921">
  <path id="Tracciato_60304" data-name="Tracciato 60304" d="M22.667,2.838a.853.853,0,0,1,0,1.206L20.884,5.831l-3.42-3.42L19.247.626a.855.855,0,0,1,1.211,0l2.209,2.209Zm-2.991,4.2-3.42-3.42L4.6,15.271a.834.834,0,0,0-.205.335L3.023,19.733a.426.426,0,0,0,.271.54.418.418,0,0,0,.269,0L7.69,18.9a.834.834,0,0,0,.335-.205L19.676,7.04Z" transform="translate(-3 -0.375)" fill="#0063a5"/>
</svg>
